<?xml version="1.0" encoding="UTF-8"?>
<svg id="Capa_2" data-name="Capa 2" xmlns="http://www.w3.org/2000/svg" viewBox="0 0 183.92 180.05">
  <defs>
    <style>
      .cls-1 {
        fill: #16807b;
      }
    </style>
  </defs>
  <g id="Capa_1-2" data-name="Capa 1">
    <path class="cls-1" d="M180.28,61.68c-5.96-21.8-19.07-34.91-19.07-34.91h0c-5-6.25-10.87-11.47-17.08-16.31-2.33-1.81-3.9-2.02-6.2-3.25-1.24-.66-2.87-2.43-4.07-2.99-3.13-1.46-7.81-1.69-11.18-2.25-.34-.06-.76-.43-1.05-.42-.24,0-.58.52-1.18.6-1.13.16-2.52-.54-4.1,0-.4.14-.54.57-1,.81-1.19.61-2.24.55-3.76,1.35-1.07.56-2.45.98-3.51,1.57-1.9,1.06-2.58,3.18-3.76,4.66-1.41,1.77-3.19,3.16-4.29,5.45-.92,1.91-.92,10.2-.45,12.35.43,1.97,1.26,2.35,2.08,3.87.21.39.14.93.38,1.37.19.35.91.63,1.19,1.05.25.38.27,1.01.61,1.32.27.25.97.27,1.49.63.62.42,2.02,2.95,2.47,3.1.67-.04,1.52-.06,2.17-.14,2-.24,1.94.09,3.83.66.35.11.82-.06,1.3.08.58.17,1.33,1.11,1.55,1.21.4.17,1.15-.13,1.69.22.38.24.48.92.79,1.06.31.15.75-.03,1.09.1.29.11,1.24,1.41,1.83,1.77,1.03.62,3.46,1.74,4.48,2.13.88.33,3.65.72,4.06,1.03.31.23.31.61.54.81.6.51,1.61.75,2.08,1.13.74.6,1.46.86,2.16,1.59,16.99,18.28,17.17,29.46,17.29,40.33.52,47.54-54.79,82.03-106.01,48.63-2.81-2.24-35.13-23.45-28.55-67.35,2.77-20.7,9.41-30.54,13.93-36.98,9.96-14.17,23.21-22.36,26.86-24.28.76-.4,1.24-.86-.12-.38-18.75,7.37-32.59,27.76-32.65,27.88-.47.67-1.05.69-.34-.66,1.67-3.11,11.49-18.28,31.1-28.74,2.24-1.19,4.5-2.25,7.08-3.29,2.55-1.03,5.42-2.02,8.94-2.95.04-.01.09-.02.13-.04-.05,0-.1.01-.15.02-.32.04-.71.11-1.1.18-.45.09-.9.19-1.22.24-.07.01-.12-.04-.03-.07.6-.24,2.75-1.03,5.27-1.48,7.75-1.4,13.7-1.92,17.44-1.98.65,0,1.45-.23,0-.3-8.78-.44-16.39.46-22.58,1.82h0c-17.88,3.9-28.01,11.26-31.27,13.83-.15.12-.28,0-.13-.15,1.54-1.59,4.1-3.73,7.77-6.28.12-.08.02-.26-.11-.2-2.69,1.26-9.79,5.05-17.49,13.08-.94.99-7.26,6.85-15.99,20.45-1.27,1.88-1.07.47-.62-.47,3.48-7.29,10.76-15.66,11.58-16.49,1.63-1.67,5.18-5.19,4.36-4.84-2.57,1.08-13.17,12.94-16.14,18.41-3.19,5.47-5.92,11.44-7.97,17.78-2.06,6.33-3.57,13.01-4.15,19.86-1.58,18.59.99,28,1.81,31.42,0,.02,0,.04.01.06,9.07,41.2,45.09,71.67,89.13,71.67,33.3,0,62.33-17.59,78.52-43.98,23.37-34.91,10.31-74.38,10.3-74.39Z"/>
  </g>
</svg>
