<?xml version="1.0" encoding="UTF-8"?>
<svg id="Capa_2" data-name="Capa 2" xmlns="http://www.w3.org/2000/svg" viewBox="0 0 386.33 120.28">
  <defs>
    <style>
      .cls-1 {
        fill: #16807b;
      }

      .cls-2 {
        fill: #e4dfdb;
      }
    </style>
  </defs>
  <g id="Capa_1-2" data-name="Capa 1">
    <g>
      <path class="cls-2" d="M138.22,29.78h12.47v24.51l23.65-24.51h15.48l-24.08,24.6,25.63,36.89h-14.62l-19.78-28.72-6.28,6.36v22.36h-12.47V29.78Z"/>
      <path class="cls-2" d="M220.35,86.37h-.17c-2.24,3.35-5.42,5.93-12.99,5.93-9.03,0-15.39-4.73-15.39-13.5,0-9.72,7.91-12.81,17.72-14.19,7.31-1.03,10.66-1.63,10.66-4.99s-2.49-5.25-7.4-5.25c-5.5,0-8.17,1.98-8.51,6.19h-10.41c.34-7.74,6.11-14.53,19.01-14.53s18.58,5.93,18.58,16.25v22.45c0,3.35.52,5.33,1.55,6.11v.43h-11.27c-.69-.86-1.12-2.92-1.38-4.9ZM220.44,75.71v-6.62c-2.06,1.2-5.25,1.89-8.17,2.58-6.11,1.38-9.12,2.75-9.12,6.88s2.75,5.59,6.88,5.59c6.71,0,10.41-4.13,10.41-8.43Z"/>
      <path class="cls-2" d="M238.84,29.78h11.7v10.49h-11.7v-10.49ZM238.84,47.16h11.7v44.12h-11.7v-44.12Z"/>
      <path class="cls-2" d="M256.56,69.17c0-14.79,8.51-23.39,19.52-23.39,6.28,0,11.09,3.1,13.93,7.31h.17v-23.31h6.97v61.49h-6.97v-5.42h-.17c-3.35,4.3-7.48,6.71-13.76,6.71-12.13,0-19.69-9.12-19.69-23.39ZM290.61,69.26c0-10.32-4.99-17.54-14.19-17.54-8.43,0-12.73,7.57-12.73,17.54s4.3,17.46,12.81,17.46c9.89,0,14.1-7.4,14.1-17.46Z"/>
      <path class="cls-2" d="M304.12,69.09c0-12.9,8.43-23.39,21.07-23.39,13.33,0,20.47,10.32,20.47,25.03h-34.4c.52,9.03,5.42,15.91,14.36,15.91,6.45,0,10.75-3.1,12.3-9.12h6.79c-2.06,9.55-9.03,14.96-19.09,14.96-13.59,0-21.5-10.49-21.5-23.39ZM311.43,65.47h26.75c-.43-8.86-4.99-14.28-12.99-14.28s-12.73,6.19-13.76,14.28Z"/>
      <path class="cls-2" d="M347.03,46.81h7.48l9.2,28.21c1.29,3.96,2.92,9.37,2.92,9.37h.17s1.63-5.5,2.92-9.37l9.37-28.21h7.22l-16,44.46h-7.74l-15.57-44.46Z"/>
    </g>
    <path class="cls-1" d="M120.43,41.21c-3.98-14.56-12.74-23.32-12.74-23.32h0c-3.34-4.18-7.26-7.66-11.41-10.89-1.55-1.21-2.6-1.35-4.14-2.17-.83-.44-1.92-1.62-2.72-1.99-2.09-.98-5.22-1.13-7.47-1.5-.23-.04-.51-.29-.7-.28-.16,0-.39.35-.79.4-.75.1-1.68-.36-2.74,0-.27.09-.36.38-.67.54-.79.41-1.49.37-2.51.9-.71.37-1.64.65-2.34,1.05-1.27.71-1.72,2.12-2.51,3.11-.94,1.18-2.13,2.11-2.87,3.64-.61,1.27-.61,6.82-.3,8.25.29,1.31.84,1.57,1.39,2.58.14.26.09.62.25.91.13.24.61.42.79.7.17.25.18.68.41.88.18.16.65.18.99.42.41.28,1.35,1.97,1.65,2.07.45-.03,1.01-.04,1.45-.09,1.33-.16,1.3.06,2.56.44.23.07.55-.04.87.05.39.12.89.74,1.04.81.26.12.77-.09,1.13.15.25.16.32.61.53.71.21.1.5-.02.73.07.19.07.83.95,1.23,1.18.69.41,2.31,1.16,3,1.42.59.22,2.44.48,2.71.69.21.16.21.41.36.54.4.34,1.07.5,1.39.76.49.4.97.58,1.44,1.06,11.35,12.21,11.47,19.68,11.55,26.94.35,31.76-36.6,54.8-70.82,32.49-1.88-1.5-23.47-15.66-19.07-44.99,1.85-13.83,6.29-20.4,9.31-24.7,6.65-9.47,15.51-14.93,17.95-16.22.5-.27.83-.58-.08-.26-12.52,4.93-21.77,18.54-21.81,18.62-.31.45-.7.46-.23-.44,1.12-2.08,7.67-12.21,20.78-19.2,1.5-.79,3-1.5,4.73-2.2,1.7-.69,3.62-1.35,5.97-1.97.03,0,.06-.02.09-.02-.03,0-.07,0-.1.01-.21.03-.48.08-.74.12-.3.06-.6.12-.81.16-.05,0-.08-.02-.02-.05.4-.16,1.84-.69,3.52-.99,5.17-.94,9.15-1.28,11.65-1.32.44,0,.97-.15,0-.2-5.87-.29-10.95.31-15.09,1.22h0c-11.95,2.6-18.71,7.52-20.89,9.24-.1.08-.19,0-.08-.1,1.03-1.06,2.74-2.49,5.19-4.2.08-.05.01-.18-.08-.14-1.8.84-6.54,3.38-11.68,8.74-.63.66-4.85,4.58-10.68,13.66-.85,1.26-.72.31-.41-.32,2.33-4.87,7.19-10.46,7.74-11.02,1.09-1.11,3.46-3.46,2.91-3.23-1.72.72-8.8,8.64-10.78,12.3-2.13,3.65-3.95,7.64-5.33,11.88-1.38,4.23-2.39,8.69-2.77,13.27-1.05,12.42.66,18.7,1.21,20.99,0,.01,0,.03,0,.04,6.06,27.52,30.12,47.88,59.54,47.88,22.25,0,41.64-11.75,52.45-29.38,15.61-23.32,6.88-49.68,6.88-49.69Z"/>
  </g>
</svg>