<?xml version="1.0" encoding="UTF-8"?>
<svg id="Capa_2" data-name="Capa 2" xmlns="http://www.w3.org/2000/svg" viewBox="0 0 25.28 25.02">
  <defs>
    <style>
      .cls-1 {
        fill: #16807b;
      }
    </style>
  </defs>
  <g id="Capa_1-2" data-name="Capa 1">
    <path class="cls-1" d="M17.74.41c.33.15.68.31,1.07.52.41.23.82.47,1.13.7.16.11.31.22.45.33.15.12.33.24.49.37.33.26.64.54.95.84.61.59,1.16,1.26,1.63,1.99.47.73.84,1.51,1.12,2.31.28.8.46,1.61.57,2.41.05.4.09.8.11,1.19.02.39.02.78.01,1.19-.04,1.61-.38,3.21-1,4.67-.61,1.47-1.49,2.81-2.55,3.95-1.07,1.14-2.33,2.09-3.72,2.79-2.77,1.41-6.05,1.76-9,.91-1.47-.42-2.85-1.12-4.05-2.04-1.19-.92-2.2-2.05-2.98-3.3C.39,16.71-.24,13.7.08,10.84c.16-1.43.56-2.83,1.18-4.12.63-1.29,1.48-2.45,2.5-3.43,1.02-.98,2.21-1.76,3.49-2.32C8.55.42,9.91.09,11.29,0c.21-.01.39.14.4.35.01.2-.13.37-.32.4h0c-1.28.18-2.52.58-3.65,1.17-1.13.59-2.14,1.38-2.98,2.31-.84.93-1.51,2-1.97,3.15-.46,1.15-.71,2.37-.75,3.6-.1,2.46.63,4.91,2.05,6.83.7.96,1.56,1.79,2.54,2.43.97.64,2.05,1.09,3.16,1.32.56.12,1.12.18,1.69.19.57,0,1.13-.04,1.68-.14,1.11-.19,2.17-.59,3.13-1.17.96-.58,1.81-1.32,2.5-2.18.69-.86,1.22-1.84,1.57-2.86.35-1.02.49-2.09.44-3.15-.01-.26-.04-.54-.07-.81-.04-.27-.08-.54-.14-.79-.11-.52-.27-1-.47-1.45-.4-.89-.98-1.63-1.73-2.25-.19-.15-.39-.3-.59-.44-.11-.07-.2-.13-.33-.21-.14-.08-.26-.16-.38-.23-.24-.14-.4-.21-.6-.29-.2-.08-.47-.18-.76-.28-1.44-.49-2.21-2.06-1.71-3.5.49-1.44,2.06-2.21,3.5-1.71.09.03.17.06.25.1h.01Z"/>
  </g>
</svg>